<svg xmlns="http://www.w3.org/2000/svg" viewBox="0 0 16 16" fill="none" shape-rendering="crispEdges"><desc>"Pixel Art" by "Florian Körner", licensed under "CC0 1.0". / Remix of the original. - Created with dicebear.com</desc><metadata xmlns:dc="http://purl.org/dc/elements/1.1/" xmlns:cc="http://creativecommons.org/ns#" xmlns:rdf="http://www.w3.org/1999/02/22-rdf-syntax-ns#"><rdf:RDF><cc:Work><dc:title>Pixel Art</dc:title><dc:creator><cc:Agent rdf:about="https://dicebear.com"><dc:title>Florian Körner</dc:title></cc:Agent></dc:creator><dc:source>https://www.figma.com/community/file/1198754108850888330</dc:source><cc:license rdf:resource="https://creativecommons.org/licenses/zero/1.0/"/></cc:Work></rdf:RDF></metadata><mask id="viewboxMask"><rect width="16" height="16" rx="0" ry="0" x="0" y="0" fill="#fff"/></mask><g mask="url(#viewboxMask)"><path d="M4 2h8v1h1v3h1v2h-1v3h-1v1H9v1h4v1h1v2H2v-2h1v-1h4v-1H4v-1H3V8H2V6h1V3h1V2Z" fill="#ffdbac"/><path d="M4 2h8v1h1v3h1v2h-1v3h-1v1H4v-1H3V8H2V6h1V3h1V2Z" fill="#fff" fill-opacity=".1"/><path d="M10 13h3v1h1v2H2v-2h1v-1h3v2h4v-2Z" fill="#428bca"/><path fill="#fff" d="M4 5h3v2H4z"/><path fill="#647b90" d="M5 6h1v1H5z"/><path fill="#fff" d="M9 5h3v2H9z"/><path fill="#647b90" d="M10 6h1v1h-1z"/><path fill-rule="evenodd" clip-rule="evenodd" d="M2 5v1h1v2h1v1h3V8h2v1h3V8h1V6h1V5H2Zm10 3H9V6h3v2ZM7 8H4V6h3v2Z" fill="#43677d"/><path fill="#000" fill-opacity=".3" d="M9 6h3v2H9zM4 6h3v2H4z"/><path fill="#fff" fill-opacity=".2" d="M7 5h2v1H7zM2 5h2v1H2zM12 5h2v1h-2z"/><path d="M6 10v1h1v1h2v-1h1v-1H9V9H7v1H6Z" fill="#c98276"/><path d="M7 10v1h2v-1H7Z" fill="#fff"/><path d="M12 2H4v1h8zM13 3h-1v1h1zM6 3H3v1h3zM5 4H3v1h2z" fill="#28150a"/></g></svg>
