<svg xmlns="http://www.w3.org/2000/svg" viewBox="0 0 16 16" fill="none" shape-rendering="crispEdges"><desc>"Pixel Art" by "Florian Körner", licensed under "CC0 1.0". / Remix of the original. - Created with dicebear.com</desc><metadata xmlns:dc="http://purl.org/dc/elements/1.1/" xmlns:cc="http://creativecommons.org/ns#" xmlns:rdf="http://www.w3.org/1999/02/22-rdf-syntax-ns#"><rdf:RDF><cc:Work><dc:title>Pixel Art</dc:title><dc:creator><cc:Agent rdf:about="https://dicebear.com"><dc:title>Florian Körner</dc:title></cc:Agent></dc:creator><dc:source>https://www.figma.com/community/file/1198754108850888330</dc:source><cc:license rdf:resource="https://creativecommons.org/licenses/zero/1.0/"/></cc:Work></rdf:RDF></metadata><mask id="viewboxMask"><rect width="16" height="16" rx="0" ry="0" x="0" y="0" fill="#fff"/></mask><g mask="url(#viewboxMask)"><path d="M4 2h8v1h1v3h1v2h-1v3h-1v1H9v1h4v1h1v2H2v-2h1v-1h4v-1H4v-1H3V8H2V6h1V3h1V2Z" fill="#eac393"/><path d="M4 2h8v1h1v3h1v2h-1v3h-1v1H4v-1H3V8H2V6h1V3h1V2Z" fill="#fff" fill-opacity=".1"/><path d="M10 13h3v1h1v2H2v-2h1v-1h3v2h4v-2Z" fill="#00b159"/><path fill="#fff" fill-opacity=".2" d="M5 14h1v1H5zM4 15h1v1H4zM7 15h1v1H7zM3 13h1v1H3zM2 14h1v1H2zM12 13h1v1h-1zM11 14h1v1h-1zM10 15h1v1h-1zM13 15h1v1h-1z"/><path d="M6 5H5v2h2V6H6V5ZM11 5h-1v2h2V6h-1V5Z" fill="#fff"/><path fill="#647b90" d="M5 6h1v1H5zM10 6h1v1h-1z"/><path d="M10 11v-1H7V9H6v1h1v1h3Z" fill="#de0f0d"/><path d="M5 4V3h7v1h1v2h1v2h-1v3h-1v1H9v1h4v1h1v3h1V3h-1V2h-1V1H3v1H2v1H1v14h1v-3h1v-1h4v-1H4v-1H3V8H2V6h1V5h1V4h1Z" fill="#cab188"/></g></svg>